# xmcd
#
# Track frame offsets:
#	150
#	24425
#	47805
#	64833
#	84241
#	103826
#	125748
#	147402
#	165554
#	185438
#
# Disc length: 2695 seconds
#
# Revision: 0
# Processed by: cddbd v1.4PL0 Copyright (c) Steve Scherf et al.
# Submitted via: EasyCDDAExtractor 4.5.2.1
#
DISCID=880a850a
DTITLE=Clash - Soundcream
DYEAR=2003
DGENRE=Rock
TTITLE0=เธอคือนางฟ้าในใจ
TTITLE1=กอด
TTITLE2=หนาว
TTITLE3=หยุดฝันก็ไปไม่ถึง
TTITLE4=เจ้าหญิงนิทรา
TTITLE5=ขอเช็ดน้ำตา
TTITLE6=โอ้ความรัก
TTITLE7=รับได้ทุกอย่าง
TTITLE8=จะไม่รับปาก
TTITLE9=เธอจะอยู่กับฉันตลอดไป
EXTD=
EXTT0=
EXTT1=
EXTT2=
EXTT3=
EXTT4=
EXTT5=
EXTT6=
EXTT7=
EXTT8=
EXTT9=
PLAYORDER=
